<?xml version="1.0" encoding="utf-8"?>
<!-- Generator: Adobe Illustrator 26.0.2, SVG Export Plug-In . SVG Version: 6.00 Build 0)  -->
<svg version="1.1" id="Layer_1" xmlns="http://www.w3.org/2000/svg" xmlns:xlink="http://www.w3.org/1999/xlink" x="0px" y="0px"
	 viewBox="0 0 221 65" style="enable-background:new 0 0 221 65;" xml:space="preserve">
<style type="text/css">
	.st0{fill:#FFFFFF;}
	.st1{clip-path:url(#SVGID_00000162317807011164702000000018277746194341133477_);}
</style>
<path class="st0" d="M71.2,49.8c0.3-0.5,0.6-1.2,0.8-2c0.2-0.8,0.3-1.6,0.3-2.6v-17c0-1.1-0.1-2-0.4-2.6c-0.2-0.7-0.6-1.3-1.1-1.8
	v-0.2l6.6-2.2h0.2v3.6h0.2c0.6-1.1,1.5-2,2.5-2.6c1-0.6,2.2-1,3.5-1c1.6,0,3.1,0.4,4.3,1.2s2.2,1.9,2.8,3.4c0.7,1.5,1,3.2,1,5.1
	c0,2.2-0.4,4.2-1.3,5.9c-0.9,1.7-2,3-3.5,4c-1.4,0.9-3,1.4-4.7,1.4c-2,0-3.6-0.5-4.8-1.5v4.2c0,0.9,0.1,1.8,0.3,2.6
	c0.2,0.8,0.5,1.5,0.8,2V50h-7.6V49.8z M81.7,41.4c1.4,0,2.6-0.8,3.4-2.4c0.8-1.6,1.2-3.8,1.2-6.6c0-2.5-0.4-4.5-1.3-6
	c-0.9-1.4-2-2.2-3.4-2.2c-1,0-1.9,0.3-2.6,1c-0.7,0.6-1.1,1.4-1.2,2.4v9.6c0.1,1.1,0.5,2.1,1.2,2.9C79.7,41,80.6,41.4,81.7,41.4z
	 M112.3,35.2c-0.5,2.2-1.5,4-3,5.3c-1.6,1.3-3.5,2-5.8,2c-1.8,0-3.4-0.4-4.8-1.2c-1.4-0.8-2.6-2-3.4-3.5c-0.8-1.5-1.2-3.3-1.2-5.4
	c0-2.2,0.5-4.1,1.4-5.7c0.9-1.7,2.1-3,3.6-3.9c1.5-0.9,3.2-1.4,5-1.4c1.7,0,3.1,0.3,4.3,1c1.2,0.7,2.2,1.6,2.8,2.8
	c0.6,1.2,1,2.4,1,3.8H98.3c0.1,2,0.5,3.7,1.2,5.2c0.7,1.4,1.7,2.5,2.8,3.2c1.2,0.7,2.5,1.1,3.8,1.1c1.3,0,2.5-0.3,3.4-0.9
	c1-0.6,1.8-1.4,2.3-2.4H112.3z M102.4,22.6c-1.2,0-2.2,0.5-2.9,1.4c-0.7,0.9-1.1,2.3-1.2,4.1h8.4c-0.2-1.7-0.6-3.1-1.4-4
	C104.6,23.1,103.6,22.6,102.4,22.6z M114.8,41.8c0.3-0.5,0.6-1.1,0.8-1.9c0.2-0.8,0.3-1.7,0.3-2.6v-9c0-1.1-0.1-2-0.4-2.6
	c-0.2-0.7-0.6-1.3-1.1-1.8v-0.2l6.6-2.2h0.2v3.9h0.2c0.5-1.1,1.3-2.1,2.4-2.8c1.1-0.7,2.4-1.1,3.8-1.1c1.9,0,3.5,0.6,4.7,1.9
	c1.2,1.3,1.8,2.9,1.8,4.9v9c0,0.9,0.1,1.8,0.3,2.6c0.2,0.8,0.5,1.4,0.8,1.9V42h-7.6v-0.2c0.3-0.5,0.6-1.1,0.8-1.9
	c0.2-0.8,0.3-1.7,0.3-2.6v-8.9c0-1.1-0.3-2-1-2.7c-0.7-0.7-1.5-1.1-2.6-1.1c-1.1,0-2,0.3-2.8,1c-0.7,0.7-1.1,1.6-1.1,2.7v8.9
	c0,0.9,0.1,1.8,0.3,2.6c0.2,0.8,0.5,1.4,0.8,1.9V42h-7.6V41.8z M145.5,42.5c-1.7,0-3.2-0.5-4.4-1.6c-1.2-1.1-1.8-2.6-1.8-4.5V25.8
	c0-0.7-0.2-1.3-0.5-1.8c-0.3-0.5-0.7-0.8-1.3-1v-0.2c1.3-0.5,2.5-1.2,3.7-2.1c1.2-0.9,2.3-1.9,3.3-3h0.2V22h5.8l-0.5,1.4h-5.3v13
	c0,1.2,0.3,2.1,1,2.8c0.6,0.6,1.4,1,2.4,1c0.6,0,1.1-0.1,1.5-0.3c0.4-0.2,0.7-0.5,0.9-0.7l0.4,0.2c-0.4,0.9-1.1,1.7-2.1,2.3
	C147.9,42.2,146.8,42.5,145.5,42.5z M170.2,40.6c-0.3,0.6-0.8,1.1-1.6,1.4c-0.7,0.3-1.5,0.5-2.4,0.5c-1.1,0-2-0.3-2.7-0.8
	c-0.7-0.5-1.1-1.3-1.2-2.2l0-0.2h-0.1c-0.5,0.9-1.3,1.7-2.2,2.2c-0.9,0.6-2.1,0.8-3.4,0.8c-1.6,0-2.9-0.4-3.8-1.2
	c-0.9-0.8-1.4-1.8-1.4-3.2c0-1.5,0.5-2.7,1.6-3.7c1.1-1,2.4-1.8,4.1-2.2c1.7-0.5,3.5-0.7,5.3-0.7v-2.5c0-1.5-0.5-2.7-1.4-3.6
	c-0.9-0.9-2.1-1.4-3.7-1.4c-1.1,0-2.2,0.3-3.1,0.8c-0.9,0.5-1.6,1.3-2.1,2.2h-0.4c0.5-1.7,1.4-3.1,2.8-4.1c1.5-1,3.2-1.5,5.2-1.5
	c2.5,0,4.5,0.7,5.9,2.1c1.4,1.4,2.2,3.2,2.2,5.5v10c0,0.6,0.1,1,0.4,1.2c0.2,0.2,0.5,0.4,0.9,0.4c0.5,0,0.8-0.1,1-0.3L170.2,40.6z
	 M159.5,39.9c0.8,0,1.5-0.3,2-0.8c0.6-0.6,0.8-1.2,0.8-2v-4.6c-1.7,0.1-3,0.5-4,1.2c-1,0.8-1.4,1.8-1.4,3.2c0,1,0.2,1.8,0.7,2.3
	C158.2,39.7,158.8,39.9,159.5,39.9z M180.5,42.5c-1.7,0-3.3-0.4-4.8-1.2c-1.4-0.8-2.5-1.9-3.4-3.4c-0.8-1.5-1.2-3.3-1.2-5.4
	c0-2.1,0.5-4,1.5-5.6c1-1.7,2.3-3,4-4c1.7-1,3.5-1.4,5.5-1.4c1,0,2,0.1,3.1,0.4c1.1,0.2,2,0.6,2.9,1v6h-0.4
	c-0.7-1.9-1.6-3.4-2.9-4.6c-1.3-1.2-2.6-1.8-4.2-1.8c-1.5,0-2.7,0.6-3.7,1.7c-1,1.1-1.5,2.8-1.5,5c0,1.8,0.3,3.3,1,4.8
	c0.7,1.4,1.6,2.5,2.8,3.4c1.2,0.8,2.5,1.2,4,1.2c1.2,0,2.2-0.3,3.2-0.8c1-0.6,1.6-1.4,2-2.5h0.4c-0.3,2.2-1.3,4-2.8,5.3
	C184.6,41.9,182.7,42.5,180.5,42.5z M191,41.8c0.3-0.5,0.6-1.1,0.8-1.9c0.2-0.8,0.3-1.7,0.3-2.6V19c0-1.1-0.1-2-0.4-2.7
	c-0.2-0.7-0.6-1.3-1.1-1.7v-0.2l6.6-2.2h0.2v25.1c0,0.9,0.1,1.8,0.3,2.6c0.2,0.8,0.5,1.4,0.8,1.9V42H191V41.8z M219.4,35.2
	c-0.5,2.2-1.5,4-3,5.3c-1.6,1.3-3.5,2-5.8,2c-1.8,0-3.4-0.4-4.8-1.2c-1.4-0.8-2.6-2-3.4-3.5c-0.8-1.5-1.2-3.3-1.2-5.4
	c0-2.2,0.5-4.1,1.4-5.7c0.9-1.7,2.1-3,3.6-3.9c1.5-0.9,3.2-1.4,5-1.4c1.7,0,3.1,0.3,4.3,1c1.2,0.7,2.2,1.6,2.8,2.8
	c0.6,1.2,1,2.4,1,3.8h-13.7c0.1,2,0.5,3.7,1.2,5.2c0.7,1.4,1.7,2.5,2.8,3.2c1.2,0.7,2.5,1.1,3.8,1.1c1.3,0,2.5-0.3,3.4-0.9
	c1-0.6,1.8-1.4,2.3-2.4H219.4z M209.6,22.6c-1.2,0-2.2,0.5-2.9,1.4c-0.7,0.9-1.1,2.3-1.2,4.1h8.4c-0.2-1.7-0.6-3.1-1.4-4
	C211.8,23.1,210.8,22.6,209.6,22.6z"/>
<g>
	<defs>
		<rect id="SVGID_1_" y="6" width="55" height="55"/>
	</defs>
	<clipPath id="SVGID_00000005260862243723765200000014134969987947226281_">
		<use xlink:href="#SVGID_1_"  style="overflow:visible;"/>
	</clipPath>
	<g style="clip-path:url(#SVGID_00000005260862243723765200000014134969987947226281_);">
		<path class="st0" d="M53.7,28.8c0,0.3,0,0.6,0,0.8c0,0.3,0,0.5-0.1,0.8s-0.1,0.6-0.1,0.8c0,0.2-0.1,0.5-0.1,0.8
			c0,0.2-0.1,0.5-0.1,0.8c0,0.3-0.1,0.5-0.2,0.8c-0.1,0.2-0.1,0.5-0.2,0.8c-0.1,0.2-0.1,0.5-0.2,0.7c-0.1,0.2-0.1,0.5-0.2,0.7
			c-0.1,0.2-0.2,0.5-0.2,0.7c-0.1,0.2-0.2,0.5-0.3,0.7l-0.3,0.7c-0.1,0.2-0.2,0.5-0.3,0.7c-0.1,0.2-0.1,0.3-0.2,0.4v0
			c0-0.2-0.1-0.5-0.1-0.7c-0.1-0.2-0.1-0.5-0.2-0.7c-0.1-0.2-0.1-0.5-0.2-0.7c-0.1-0.2-0.1-0.5-0.2-0.7c-0.1-0.2-0.1-0.5-0.2-0.7
			L50,34.9c-0.1-0.2-0.2-0.4-0.3-0.6c-0.1-0.2-0.2-0.4-0.3-0.6c-0.1-0.2-0.2-0.4-0.3-0.6s-0.2-0.4-0.3-0.6c-0.1-0.2-0.2-0.4-0.3-0.6
			c-0.1-0.2-0.2-0.4-0.4-0.5c-0.1-0.2-0.2-0.4-0.4-0.5s-0.3-0.3-0.4-0.5L47,29.9c-0.1-0.2-0.3-0.3-0.4-0.5l-0.3-0.3
			c0-0.1,0-0.3,0.1-0.4c0-0.1,0-0.4,0.1-0.6c0-0.2,0-0.4,0-0.6s0-0.4,0-0.6c0-0.2,0-0.4,0-0.6s0-0.4,0-0.6c0-0.2,0-0.5,0-0.6
			c0-0.2-0.1-0.5-0.1-0.7c0-0.2-0.1-0.5-0.1-0.7c0-0.2-0.1-0.4-0.1-0.7c0-0.2-0.1-0.5-0.1-0.7c0-0.2-0.1-0.5-0.2-0.7
			c-0.1-0.2-0.1-0.5-0.2-0.7c-0.1-0.2-0.1-0.5-0.2-0.7c-0.1-0.2-0.2-0.5-0.2-0.7c-0.1-0.2-0.2-0.5-0.3-0.7c-0.1-0.2-0.2-0.5-0.3-0.7
			c0,0,0,0,0,0l0.4,0.2l0.6,0.4c0.2,0.1,0.4,0.3,0.6,0.4c0.2,0.1,0.4,0.3,0.6,0.4l0.6,0.4c0.2,0.1,0.4,0.3,0.6,0.5
			c0.2,0.2,0.4,0.3,0.6,0.5c0.2,0.2,0.4,0.3,0.6,0.5l0.6,0.5c0.2,0.2,0.4,0.4,0.6,0.6c0.2,0.2,0.4,0.4,0.5,0.6
			c0.2,0.2,0.4,0.4,0.5,0.6c0.1,0.2,0.4,0.4,0.5,0.6c0.2,0.2,0.3,0.4,0.5,0.6c0.2,0.2,0.3,0.5,0.5,0.7l0.5,0.7l0.2,0.4
			c0,0.2,0,0.3,0,0.5c0,0.3,0,0.6,0,0.8C53.7,28.3,53.7,28.5,53.7,28.8L53.7,28.8z M48.7,47c0,0.2-0.1,0.5-0.1,0.7
			c-0.1,0.2-0.1,0.5-0.2,0.7c-0.1,0.2-0.1,0.5-0.2,0.7c-0.1,0.2-0.1,0.5-0.2,0.7c-0.1,0.2-0.2,0.5-0.2,0.7s-0.2,0.5-0.3,0.7
			c-0.1,0.2-0.2,0.5-0.3,0.7c-0.1,0.2-0.2,0.5-0.3,0.7c-0.1,0.2-0.2,0.5-0.3,0.7c-0.1,0.2-0.2,0.5-0.4,0.7c-0.1,0.2-0.3,0.5-0.4,0.7
			c-0.1,0.2-0.3,0.5-0.4,0.7c-0.1,0.2-0.3,0.5-0.4,0.7l-0.5,0.7l-0.5,0.7c-0.1,0.1-0.2,0.2-0.3,0.4l-0.4,0.2
			c-0.2,0.1-0.5,0.2-0.8,0.3c-0.3,0.1-0.5,0.2-0.8,0.3c-0.3,0.1-0.5,0.2-0.8,0.2c-0.3,0.1-0.5,0.1-0.8,0.2l-0.8,0.2l-0.8,0.1
			c-0.2,0-0.5,0.1-0.8,0.1c-0.2,0-0.5,0.1-0.8,0.1c-0.3,0-0.5,0-0.8,0.1c-0.2,0-0.5,0-0.8,0c-0.2,0-0.5,0-0.7,0H34l-0.7,0l-0.7-0.1
			l-0.7-0.1l-0.5-0.1l0.1,0L32,59c0.2-0.1,0.4-0.3,0.6-0.4c0.2-0.1,0.4-0.3,0.6-0.4c0.2-0.1,0.4-0.3,0.6-0.4
			c0.2-0.1,0.4-0.3,0.5-0.4c0.2-0.1,0.4-0.3,0.5-0.4l0.5-0.5c0.2-0.1,0.3-0.3,0.5-0.5c0.1-0.2,0.3-0.3,0.5-0.5
			c0.1-0.2,0.3-0.3,0.4-0.5c0.1-0.2,0.3-0.3,0.4-0.5c0.1-0.2,0.3-0.3,0.4-0.5c0.1-0.2,0.3-0.3,0.4-0.5c0.1-0.2,0.2-0.3,0.4-0.5
			l0.3-0.5c0.1-0.2,0.2-0.4,0.3-0.5c0.1-0.2,0.1-0.2,0.2-0.4l0.4-0.1l0.6-0.1l0.6-0.2l0.6-0.2l0.6-0.2l0.6-0.2l0.6-0.3
			c0.2-0.1,0.4-0.2,0.6-0.3l0.6-0.3l0.6-0.3c0.2-0.1,0.4-0.2,0.6-0.4l0.6-0.4c0.2-0.1,0.4-0.3,0.6-0.4c0.2-0.1,0.4-0.3,0.6-0.4
			c0.2-0.1,0.4-0.3,0.6-0.4l0.5-0.5c0.2-0.2,0.4-0.3,0.5-0.5h0C48.7,46.7,48.7,46.8,48.7,47L48.7,47z M23.1,59.4l-0.7,0.1l-0.7,0.1
			l-0.7,0h-0.7c-0.3,0-0.5,0-0.8,0c-0.2,0-0.5,0-0.8,0c-0.2,0-0.5,0-0.8-0.1c-0.2,0-0.5-0.1-0.8-0.1c-0.3,0-0.5-0.1-0.8-0.1
			l-0.8-0.1c-0.3-0.1-0.5-0.1-0.8-0.2l-0.8-0.2l-0.8-0.2c-0.2-0.1-0.5-0.2-0.8-0.3c-0.3-0.1-0.5-0.2-0.8-0.3l-0.4-0.2
			c-0.1-0.1-0.2-0.2-0.3-0.4c-0.2-0.2-0.3-0.4-0.5-0.7c-0.2-0.2-0.3-0.4-0.5-0.7c-0.1-0.2-0.3-0.5-0.4-0.7l-0.4-0.7
			c-0.1-0.2-0.3-0.5-0.4-0.7c-0.1-0.2-0.3-0.5-0.4-0.7c-0.1-0.2-0.2-0.5-0.3-0.7C8,52.5,7.9,52.3,7.8,52c-0.1-0.2-0.2-0.5-0.3-0.7
			c-0.1-0.2-0.2-0.5-0.3-0.7C7.1,50.4,7,50.1,7,49.9c-0.1-0.2-0.2-0.5-0.2-0.7c-0.1-0.2-0.1-0.5-0.2-0.7c-0.1-0.2-0.1-0.5-0.2-0.7
			c0-0.2-0.1-0.5-0.1-0.7c0-0.2-0.1-0.3-0.1-0.5c0.2,0.2,0.4,0.3,0.5,0.5c0.2,0.2,0.4,0.3,0.5,0.5l0.6,0.4c0.2,0.1,0.4,0.3,0.6,0.4
			c0.2,0.1,0.4,0.3,0.6,0.4l0.6,0.4l0.6,0.3l0.6,0.3l0.6,0.3l0.6,0.3l0.6,0.2l0.6,0.2l0.6,0.2l0.6,0.2l0.6,0.2l0.6,0.1l0.4,0.1
			l0.2,0.4c0.1,0.2,0.2,0.4,0.3,0.5s0.2,0.4,0.3,0.5l0.4,0.5c0.1,0.2,0.2,0.3,0.4,0.5c0.1,0.2,0.3,0.4,0.4,0.5
			c0.1,0.2,0.3,0.3,0.4,0.5c0.1,0.2,0.3,0.3,0.4,0.5c0.1,0.1,0.3,0.3,0.5,0.5l0.5,0.5c0.2,0.2,0.3,0.3,0.5,0.5
			c0.2,0.1,0.4,0.3,0.5,0.4c0.2,0.1,0.4,0.3,0.5,0.4c0.2,0.1,0.4,0.3,0.6,0.4c0.2,0.1,0.4,0.3,0.6,0.4c0.2,0.1,0.4,0.3,0.6,0.4
			c0.2,0.1,0.4,0.3,0.6,0.4l0.1,0L23,59.5L23.1,59.4z M4.5,42.9L4.5,42.9L4.5,42.9z M4,37.6c-0.1,0.2-0.1,0.5-0.2,0.7
			c0,0.2-0.1,0.5-0.1,0.7c0,0,0,0,0,0l-0.2-0.4c-0.1-0.2-0.2-0.5-0.3-0.7c-0.1-0.2-0.2-0.5-0.3-0.7c-0.1-0.2-0.2-0.5-0.3-0.7
			c-0.1-0.2-0.2-0.5-0.2-0.7c-0.1-0.2-0.2-0.5-0.2-0.7c-0.1-0.2-0.1-0.5-0.2-0.7c-0.1-0.2-0.1-0.5-0.2-0.8c-0.1-0.2-0.1-0.5-0.2-0.8
			c0-0.2-0.1-0.5-0.1-0.8c0-0.3-0.1-0.5-0.1-0.8c0-0.3,0.1-0.6,0.1-0.8c0-0.2,0-0.6-0.1-0.8c0-0.3,0-0.6,0-0.8c0-0.3,0-0.6,0-0.8
			s0-0.6,0-0.8c0-0.2,0-0.3,0-0.5l0.2-0.4c0.1-0.2,0.3-0.5,0.5-0.7c0.1-0.2,0.3-0.5,0.5-0.7l0.5-0.6l0.5-0.6l0.5-0.6
			c0.2-0.2,0.4-0.4,0.5-0.6C4.7,22.3,5,22.1,5.2,22c0.2-0.2,0.4-0.4,0.6-0.5l0.6-0.5l0.6-0.5c0.2-0.2,0.4-0.3,0.6-0.5
			c0.2-0.1,0.4-0.3,0.6-0.4c0.2-0.1,0.4-0.3,0.6-0.4c0.2-0.1,0.4-0.3,0.6-0.4l0.6-0.4l0.4-0.2v0.1c-0.1,0.2-0.2,0.5-0.3,0.7
			l-0.3,0.7c-0.1,0.2-0.2,0.5-0.2,0.7c-0.1,0.2-0.2,0.5-0.2,0.7c-0.1,0.2-0.1,0.5-0.2,0.7C9.2,21.8,9.1,22,9,22.3l-0.1,0.7
			c0,0.2-0.1,0.5-0.1,0.7c0,0.2-0.1,0.4-0.1,0.7c0,0.2-0.1,0.4-0.1,0.6c0,0.2,0,0.4-0.1,0.7c0,0.2,0,0.4,0,0.6s0,0.4,0,0.6
			c0,0.2,0,0.4,0,0.6c0,0.2,0,0.4,0,0.6c0,0.2,0,0.4,0.1,0.6c0,0.2,0,0.3,0.1,0.4l-0.3,0.3c-0.1,0.1-0.3,0.3-0.4,0.5
			c-0.1,0.2-0.3,0.3-0.4,0.5c-0.1,0.1-0.3,0.3-0.4,0.5c-0.1,0.2-0.3,0.4-0.4,0.5c-0.1,0.2-0.2,0.4-0.4,0.5c-0.1,0.1-0.2,0.4-0.3,0.6
			c-0.1,0.2-0.2,0.4-0.3,0.6c-0.1,0.2-0.2,0.4-0.3,0.6c-0.1,0.2-0.2,0.4-0.3,0.6c-0.1,0.2-0.2,0.4-0.3,0.6c-0.1,0.2-0.2,0.4-0.3,0.6
			c-0.1,0.2-0.2,0.5-0.2,0.7s-0.1,0.5-0.2,0.7c-0.1,0.2-0.1,0.5-0.2,0.7L4,37.6z M17.1,13.2l0.5-0.5l0.5-0.5l0.6-0.5
			c0.2-0.2,0.4-0.3,0.6-0.5c0.2-0.1,0.4-0.3,0.6-0.4c0.2-0.1,0.4-0.3,0.6-0.4c0.2-0.1,0.4-0.3,0.6-0.4l0.7-0.4l0.7-0.4
			C22.8,9.1,23,9,23.2,8.9c0.2-0.1,0.5-0.2,0.7-0.3c0.2-0.1,0.5-0.2,0.7-0.3c0.2-0.1,0.5-0.2,0.8-0.3l0.8-0.3
			c0.3-0.1,0.5-0.2,0.8-0.2l0.4-0.1l0.4,0.1c0.2,0.1,0.5,0.2,0.8,0.2L29.4,8l0.8,0.3l0.7,0.3l0.7,0.3c0.2,0.1,0.5,0.2,0.7,0.3
			c0.2,0.1,0.5,0.2,0.7,0.4l0.7,0.4l0.7,0.4c0.2,0.1,0.4,0.3,0.6,0.4l0.6,0.4l0.6,0.5c0.2,0.1,0.4,0.3,0.6,0.5l0.6,0.5l0.5,0.5
			l0.4,0.3h-0.1c-0.2,0-0.5-0.1-0.7-0.1c-0.2,0-0.5,0-0.7-0.1c-0.2,0-0.5,0-0.7,0h-0.6h-0.7l-0.7,0c-0.2,0-0.5,0-0.7,0.1
			c-0.2,0-0.4,0.1-0.7,0.1L32,13.7c-0.2,0-0.4,0.1-0.6,0.1L30.8,14l-0.6,0.2c-0.2,0.1-0.4,0.1-0.6,0.2c-0.2,0.1-0.4,0.1-0.6,0.2
			l-0.6,0.2l-0.5,0.2c-0.1,0.1-0.3,0.1-0.4,0.2c-0.1-0.1-0.3-0.1-0.4-0.2l-0.6-0.2c-0.2-0.1-0.4-0.2-0.6-0.2
			c-0.2-0.1-0.4-0.1-0.6-0.2l-0.6-0.2L24.2,14c-0.2-0.1-0.4-0.1-0.6-0.2c-0.2,0-0.4-0.1-0.6-0.1l-0.6-0.1l-0.7-0.1L21,13.5l-0.7,0
			h-0.7h-0.7c-0.2,0-0.5,0-0.7,0c-0.2,0-0.5,0-0.7,0.1c-0.2,0-0.5,0-0.7,0.1h0L17.1,13.2L17.1,13.2z M27.3,59.7l0.2,0.1h0.1l-0.1,0
			L27.3,59.7L27.3,59.7z M41.6,15.6L41.6,15.6L41.6,15.6L41.6,15.6L41.6,15.6z M48.4,43.2c-0.1,0.2-0.3,0.3-0.4,0.5l-0.5,0.5
			c-0.1,0.1-0.3,0.3-0.5,0.5l-0.5,0.4c-0.1,0.1-0.3,0.3-0.5,0.4l-0.5,0.4l-0.5,0.4c-0.1,0.1-0.3,0.2-0.5,0.3
			c-0.2,0.1-0.3,0.2-0.5,0.3c-0.2,0.1-0.3,0.2-0.5,0.3c-0.2,0.1-0.4,0.2-0.5,0.3l-0.5,0.3L42,48l-0.5,0.2l-0.5,0.2
			c-0.2,0.1-0.4,0.1-0.5,0.2l-0.2,0.1c0-0.1,0.1-0.3,0.1-0.4c0-0.1,0.1-0.4,0.1-0.5c0-0.1,0.1-0.4,0.1-0.5c0-0.2,0.1-0.4,0.1-0.5
			c0-0.2,0.1-0.4,0.1-0.5s0-0.3,0.1-0.5c0-0.2,0-0.3,0-0.5c0-0.2,0-0.3,0-0.5v-0.5c0-0.2,0-0.3,0-0.5c0-0.2,0-0.3,0-0.5
			c0-0.2,0-0.3-0.1-0.5s0-0.3-0.1-0.5c0-0.1-0.1-0.3-0.1-0.4c0-0.1-0.1-0.3-0.1-0.4c0-0.1-0.1-0.3-0.1-0.4c0-0.1-0.1-0.3-0.1-0.4
			c0-0.1-0.1-0.3-0.1-0.4c0-0.1-0.1-0.3-0.1-0.4c0-0.1-0.1-0.3-0.2-0.4c0,0,0,0,0-0.1h0l0.4-0.2l0.3-0.2l0.3-0.2l0.3-0.3
			c0.1-0.1,0.2-0.2,0.3-0.3l0.3-0.3l0.3-0.3c0.1-0.1,0.2-0.2,0.3-0.3c0.1-0.1,0.2-0.2,0.3-0.3c0.1-0.1,0.2-0.2,0.3-0.4
			c0.1-0.1,0.2-0.3,0.3-0.4l0.3-0.4l0.3-0.4l0.3-0.4c0.1-0.1,0.2-0.3,0.2-0.4c0.1-0.1,0.2-0.3,0.2-0.5c0.1-0.2,0.1-0.3,0.2-0.5
			c0.1-0.2,0.1-0.3,0.2-0.5c0.1-0.2,0.1-0.3,0.2-0.5c0.1-0.2,0.1-0.2,0.1-0.4l0.1,0.2c0.1,0.1,0.2,0.3,0.3,0.5
			c0.1,0.1,0.2,0.3,0.3,0.5c0.1,0.1,0.2,0.3,0.3,0.5c0.1,0.2,0.2,0.3,0.3,0.5c0.1,0.2,0.2,0.4,0.3,0.5c0.1,0.2,0.2,0.4,0.3,0.5
			c0.1,0.2,0.2,0.4,0.2,0.5l0.2,0.6L48,37l0.2,0.6c0.1,0.2,0.1,0.4,0.2,0.6c0.1,0.2,0.1,0.4,0.1,0.6c0,0.2,0.1,0.4,0.1,0.6
			c0,0.2,0.1,0.4,0.1,0.6c0,0.2,0.1,0.4,0.1,0.7c0,0.2,0.1,0.4,0.1,0.7c0,0.2,0,0.5,0.1,0.7c0,0.1,0,0.2,0,0.4l-0.2,0.3
			C48.6,42.9,48.4,43.1,48.4,43.2L48.4,43.2z M22.6,55.7c-0.2-0.1-0.3-0.3-0.5-0.4l-0.5-0.4c-0.1-0.1-0.3-0.3-0.4-0.4l-0.4-0.4
			c-0.1-0.1-0.3-0.3-0.4-0.4c-0.1-0.1-0.3-0.3-0.4-0.4c-0.1-0.1-0.3-0.3-0.4-0.4s-0.2-0.3-0.3-0.4c-0.1-0.1-0.2-0.3-0.3-0.4
			l-0.1-0.2h0.4c0.2,0,0.4,0,0.5,0l0.5-0.1l0.5-0.1l0.5-0.1l0.5-0.1l0.5-0.1c0.1,0,0.3-0.1,0.5-0.1l0.5-0.2l0.4-0.2l0.4-0.2
			c0.1-0.1,0.3-0.1,0.4-0.2l0.4-0.2l0.4-0.2l0.4-0.2l0.4-0.2l0.3-0.2l0.3-0.3c0.1-0.1,0.2-0.2,0.3-0.3l0.3-0.3l0,0l0,0l0.3,0.3
			l0.3,0.3l0.3,0.2l0.3,0.2c0.1,0.1,0.2,0.2,0.4,0.2l0.4,0.2l0.4,0.2l0.4,0.2l0.4,0.2l0.4,0.2l0.4,0.2l0.5,0.2
			c0.1,0,0.3,0.1,0.5,0.1l0.5,0.1l0.5,0.1l0.5,0.1l0.5,0.1l0.5,0.1l0.5,0h0.4L35.8,52l-0.3,0.4c-0.1,0.1-0.2,0.3-0.3,0.4
			c-0.1,0.1-0.2,0.3-0.4,0.4l-0.4,0.4c-0.1,0.1-0.3,0.3-0.4,0.4l-0.4,0.4c-0.1,0.1-0.3,0.3-0.4,0.4c-0.1,0.1-0.3,0.3-0.5,0.4
			l-0.5,0.4l-0.5,0.4c-0.2,0.1-0.3,0.2-0.5,0.4l-0.5,0.3c-0.2,0.1-0.4,0.2-0.5,0.3c-0.2,0.1-0.4,0.2-0.6,0.3L29,57.7
			c-0.2,0.1-0.4,0.2-0.6,0.3l-0.6,0.3l-0.3,0.1l-0.3-0.1c-0.2-0.1-0.4-0.2-0.6-0.3l-0.6-0.3c-0.2-0.1-0.4-0.2-0.6-0.3
			c-0.2-0.1-0.4-0.2-0.6-0.3c-0.2-0.1-0.4-0.2-0.5-0.3c-0.1-0.1-0.4-0.2-0.5-0.3c-0.1-0.1-0.4-0.2-0.5-0.4
			C23,56,22.8,55.8,22.6,55.7L22.6,55.7z M6,42.1c0-0.2,0-0.5,0.1-0.7c0-0.2,0-0.5,0.1-0.7c0-0.2,0.1-0.5,0.1-0.7
			c0-0.2,0.1-0.4,0.1-0.6c0-0.2,0.1-0.4,0.1-0.6c0-0.2,0.1-0.4,0.1-0.6c0.1-0.2,0.1-0.4,0.2-0.6C6.8,37.4,6.9,37.2,7,37
			c0.1-0.2,0.1-0.4,0.2-0.6l0.2-0.6c0.1-0.2,0.2-0.4,0.2-0.5c0.1-0.2,0.2-0.4,0.3-0.5C8,34.7,8,34.5,8.1,34.3
			c0.1-0.2,0.2-0.3,0.3-0.5c0.1-0.2,0.2-0.3,0.3-0.5C8.8,33.1,8.9,33,9,32.8c0.1-0.2,0.2-0.3,0.3-0.4c0,0,0.1-0.1,0.1-0.2
			c0,0.1,0.1,0.3,0.1,0.4c0,0.1,0.1,0.4,0.2,0.5c0.1,0.2,0.1,0.3,0.2,0.5c0.1,0.2,0.1,0.3,0.2,0.5l0.2,0.5c0.1,0.1,0.2,0.3,0.3,0.4
			c0.1,0.1,0.2,0.3,0.3,0.4c0.1,0.1,0.2,0.3,0.3,0.4c0.1,0.1,0.2,0.3,0.3,0.4l0.3,0.4l0.3,0.4l0.3,0.3l0.3,0.3l0.3,0.3l0.3,0.3
			l0.3,0.3l0.3,0.2c0.1,0.1,0.2,0.2,0.3,0.2l0.3,0.2l0.3,0.2h0v0.1l-0.2,0.4c0,0.1-0.1,0.3-0.1,0.4c0,0.1-0.1,0.3-0.1,0.4
			c0,0.1-0.1,0.3-0.1,0.4c0,0.1-0.1,0.3-0.1,0.4c0,0.1-0.1,0.3-0.1,0.4c0,0.1-0.1,0.3-0.1,0.4c0,0.1,0,0.3-0.1,0.5
			c0,0.2,0,0.3-0.1,0.5c0,0.1,0,0.3,0,0.5c0,0.2,0,0.3,0,0.5c0,0.2,0,0.3,0,0.5s0,0.3,0,0.5c0,0.2,0,0.3,0,0.5c0,0.2,0,0.3,0.1,0.5
			c0,0.2,0,0.4,0.1,0.5c0,0.2,0.1,0.4,0.1,0.5c0,0.2,0.1,0.3,0.1,0.5c0,0.2,0.1,0.4,0.1,0.5s0.1,0.3,0.1,0.4l-0.2-0.1L14,48.4
			l-0.5-0.2L13,48l-0.5-0.2c-0.2-0.1-0.3-0.2-0.5-0.3c-0.2-0.1-0.4-0.2-0.5-0.3c-0.2-0.1-0.3-0.2-0.5-0.3c-0.2-0.1-0.3-0.2-0.5-0.3
			c-0.2-0.1-0.3-0.2-0.5-0.3l-0.5-0.4l-0.5-0.4c-0.2-0.1-0.3-0.3-0.5-0.4c-0.1-0.1-0.3-0.3-0.5-0.4c-0.1-0.1-0.3-0.3-0.5-0.5
			C7.3,44,7.1,43.9,7,43.7c-0.1-0.2-0.3-0.3-0.4-0.5c-0.1-0.2-0.3-0.3-0.4-0.5c-0.1-0.1-0.1-0.2-0.2-0.3C5.8,42.3,5.9,42.2,6,42.1
			L6,42.1z M17.1,16.1l0.6-0.1l0.6,0H19h0.6c0.2,0,0.4,0,0.6,0s0.4,0,0.6,0c0.2,0,0.4,0,0.6,0.1c0.2,0,0.4,0,0.6,0.1l0.6,0.1
			l0.5,0.1l0.5,0.1l0.5,0.1l0.5,0.2l0.2,0.1l-0.3,0.3L24,17.5c-0.1,0.1-0.3,0.2-0.4,0.4c-0.1,0.1-0.3,0.2-0.4,0.4
			c-0.1,0.1-0.3,0.3-0.4,0.4L22.6,19l-0.3,0.4l-0.3,0.4l-0.3,0.4c-0.1,0.1-0.2,0.3-0.3,0.4l-0.2,0.4l-0.2,0.4
			c-0.1,0.1-0.1,0.3-0.2,0.4c-0.1,0.1-0.1,0.3-0.2,0.4c-0.1,0.1-0.1,0.3-0.2,0.4c0,0.1-0.1,0.3-0.2,0.4c0,0.1-0.1,0.3-0.1,0.4
			c0,0.1-0.1,0.3-0.1,0.4c0,0.1-0.1,0.3-0.1,0.4c0,0.1-0.1,0.3-0.1,0.4c0,0,0,0,0,0h-0.1c-0.1,0-0.3,0-0.4,0c-0.1,0-0.3,0-0.4,0
			c-0.3,0-0.6,0-0.8,0h-0.4l-0.4,0l-0.4,0.1l-0.4,0.1L16,24.8c-0.1,0-0.3,0.1-0.4,0.1L15.1,25l-0.5,0.2c-0.1,0.1-0.3,0.1-0.5,0.2
			l-0.5,0.2l-0.5,0.2L12.8,26c-0.1,0.1-0.3,0.2-0.5,0.3c-0.1,0.1-0.3,0.2-0.5,0.3c-0.1,0.1-0.3,0.2-0.4,0.3L11.1,27v-0.2
			c0-0.2,0-0.4,0-0.5c0-0.2,0-0.4,0-0.5c0-0.2,0-0.4,0-0.6c0-0.2,0-0.4,0.1-0.6c0-0.2,0.1-0.4,0.1-0.6c0-0.2,0.1-0.4,0.1-0.6
			c0-0.2,0.1-0.4,0.1-0.6c0-0.2,0.1-0.4,0.1-0.6c0-0.2,0.1-0.4,0.2-0.6c0.1-0.2,0.1-0.4,0.2-0.6c0.1-0.2,0.1-0.4,0.2-0.6
			c0.1-0.2,0.2-0.4,0.2-0.6s0.2-0.4,0.3-0.6c0.1-0.2,0.2-0.4,0.3-0.6c0.1-0.2,0.2-0.4,0.3-0.6c0.1-0.2,0.2-0.4,0.3-0.6
			c0.1-0.2,0.2-0.4,0.4-0.6c0.1-0.1,0.1-0.2,0.2-0.3l0.3-0.1l0.6-0.2l0.6-0.1l0.6-0.1L17.1,16.1L17.1,16.1z M43.8,27l-0.3-0.2
			l-0.5-0.3l-0.5-0.3L42.2,26c-0.1-0.1-0.3-0.2-0.5-0.2c-0.1-0.1-0.3-0.2-0.5-0.2c-0.1-0.1-0.3-0.1-0.5-0.2
			c-0.1-0.1-0.3-0.1-0.5-0.2L39.9,25l-0.5-0.1c-0.1,0-0.3-0.1-0.4-0.1l-0.4-0.1l-0.4-0.1l-0.4-0.1l-0.4,0h-0.4h-0.4
			c-0.1,0-0.3,0-0.4,0h-0.4l-0.4,0h0c0,0,0,0,0-0.1c0-0.1-0.1-0.3-0.1-0.4c0-0.1-0.1-0.3-0.1-0.4l-0.1-0.4l-0.1-0.4l-0.2-0.4
			l-0.2-0.4c-0.1-0.1-0.1-0.3-0.2-0.4c-0.1-0.2-0.1-0.3-0.2-0.4c-0.1-0.1-0.1-0.3-0.2-0.4c-0.1-0.1-0.2-0.3-0.2-0.4
			c-0.1-0.1-0.2-0.3-0.3-0.4L33,19.7c-0.1-0.1-0.2-0.3-0.3-0.4c-0.1-0.1-0.2-0.3-0.4-0.4L32,18.6c-0.1-0.1-0.2-0.3-0.4-0.4
			c-0.1-0.1-0.3-0.2-0.4-0.4s-0.3-0.2-0.4-0.4l-0.4-0.4l-0.3-0.3l0.2-0.1l0.5-0.2l0.5-0.1l0.5-0.1l0.6-0.1l0.6-0.1
			c0.2,0,0.4-0.1,0.6-0.1c0.2,0,0.4,0,0.6-0.1l0.6,0h0.6H36h0.6l0.6,0l0.6,0.1l0.7,0.1l0.6,0.1l0.6,0.1l0.6,0.2l0.3,0.1
			c0.1,0.1,0.1,0.2,0.2,0.3c0.1,0.1,0.2,0.4,0.4,0.6c0.1,0.2,0.2,0.4,0.3,0.6c0.1,0.2,0.2,0.4,0.3,0.6c0.1,0.2,0.2,0.4,0.3,0.6
			l0.3,0.6c0.1,0.2,0.2,0.4,0.2,0.6c0.1,0.2,0.1,0.4,0.2,0.6c0.1,0.2,0.1,0.4,0.2,0.6c0.1,0.2,0.1,0.4,0.2,0.6
			c0.1,0.2,0.1,0.4,0.1,0.6c0,0.2,0.1,0.4,0.1,0.6s0.1,0.4,0.1,0.6c0,0.2,0.1,0.4,0.1,0.6c0,0.2,0,0.4,0.1,0.6c0,0.2,0,0.4,0,0.6
			c0,0.2,0,0.4,0,0.6c0,0.2,0,0.4,0,0.5L43.8,27L43.8,27z M16.6,45.4c0-0.1,0-0.3,0-0.4c0-0.1,0-0.3,0-0.4v-0.4c0-0.1,0-0.3,0-0.4
			c0-0.1,0-0.3,0-0.4c0-0.1,0-0.2,0-0.4c0-0.1,0-0.2,0.1-0.3c0-0.1,0-0.2,0.1-0.3c0-0.1,0-0.2,0.1-0.3l0.1-0.3
			c0-0.1,0.1-0.2,0.1-0.3s0.1-0.2,0.1-0.3l0.1-0.3c0-0.1,0.1-0.2,0.1-0.3l0.1-0.2l0.2,0l0.3,0l0.3,0c0.1,0,0.2,0,0.3,0h0.2h0.4
			l0.3,0l0.3,0l0.3-0.1c0.1,0,0.2,0,0.3-0.1l0.3-0.1l0.2-0.1L21,40l0.2-0.1l0.2-0.1l0.2-0.1c0.1-0.1,0.1-0.1,0.2-0.2
			c0.1-0.1,0.1-0.1,0.2-0.2l0.2-0.2l0.1-0.2c0-0.1,0.1-0.1,0.1-0.2c0-0.1,0.1-0.2,0.1-0.2c0-0.1,0.1-0.2,0.1-0.2
			c0-0.1,0-0.2,0.1-0.3c0-0.1,0-0.2,0-0.2c0-0.1,0-0.2,0-0.3c0-0.1,0-0.2,0-0.2c0-0.1,0-0.2-0.1-0.3c0-0.1-0.1-0.2-0.1-0.2
			c0-0.1-0.1-0.1-0.1-0.2c0-0.1-0.1-0.2-0.2-0.2c-0.1-0.1-0.1-0.1-0.2-0.2C22,36,21.9,36,21.8,35.9c-0.1-0.1-0.2-0.1-0.2-0.2
			l-0.2-0.1l-0.2-0.1L21,35.5l-0.2-0.1c-0.1,0-0.2,0-0.2,0h-0.3H20h-0.2l-0.3,0l-0.2,0.1L19,35.5l-0.3,0.1l-0.3,0.1l-0.3,0.1
			l-0.5,0.3l-0.2,0.2l-0.2,0.2l-0.2,0.2c-0.1,0.1-0.2,0.1-0.2,0.2l-0.4,0.4l-0.2-0.1L16,37l-0.2-0.2l-0.5-0.4L15,36.3
			c-0.1-0.1-0.2-0.1-0.2-0.2c-0.1-0.1-0.2-0.2-0.2-0.2c-0.1-0.1-0.2-0.2-0.2-0.3c-0.1-0.1-0.2-0.2-0.2-0.3L13.8,35l-0.2-0.3
			c-0.1-0.1-0.2-0.2-0.2-0.3c-0.1-0.1-0.1-0.2-0.2-0.3c-0.1-0.1-0.1-0.2-0.2-0.3l-0.2-0.4c-0.1-0.1-0.1-0.3-0.2-0.4l-0.2-0.4
			l-0.2-0.4l-0.2-0.4c-0.1-0.1-0.1-0.3-0.2-0.4c-0.1-0.1-0.1-0.3-0.1-0.5c0-0.2-0.1-0.3-0.1-0.5c0-0.2-0.1-0.2-0.1-0.3
			c0.1-0.1,0.2-0.2,0.3-0.2c0.1-0.1,0.2-0.2,0.4-0.3l0.4-0.3l0.4-0.3l0.4-0.2c0.1-0.1,0.3-0.2,0.4-0.2c0.1-0.1,0.3-0.1,0.4-0.2
			l0.4-0.2l0.4-0.2l0.4-0.2l0.4-0.1l0.4-0.1l0.4-0.1l0.4-0.1l0.4-0.1l0.4-0.1l0.3,0c0.1,0,0.2,0,0.3,0h0.3c0.2,0,0.4,0,0.6,0h0.3
			l0.3,0l0.2,0c0,0.1,0,0.1,0,0.2c0,0.1,0,0.2,0.1,0.3c0,0.1,0,0.2,0.1,0.3c0,0.1,0.1,0.2,0.1,0.3c0,0.1,0.1,0.2,0.1,0.3l0.1,0.3
			l0.1,0.3c0,0.1,0.1,0.2,0.1,0.3c0,0.1,0.1,0.2,0.1,0.2c0,0.1,0.1,0.2,0.1,0.2c0,0.1,0.1,0.2,0.1,0.2c0,0.1,0.1,0.1,0.2,0.2
			l0.2,0.2l0.2,0.2l0.2,0.2l0.2,0.1c0.1,0,0.1,0.1,0.2,0.1l0.2,0.1c0.1,0,0.2,0.1,0.2,0.1l0.2,0.1l0.3,0.1l0.2,0h0.2h0.2
			c0.1,0,0.2,0,0.3-0.1c0.1,0,0.2,0,0.2-0.1c0.1,0,0.2-0.1,0.2-0.1c0.1,0,0.1-0.1,0.2-0.1c0.1-0.1,0.1-0.1,0.2-0.2
			c0.1-0.1,0.1-0.1,0.2-0.2l0.1-0.2c0-0.1,0.1-0.1,0.1-0.2c0-0.1,0.1-0.2,0.1-0.2c0-0.1,0.1-0.2,0.1-0.3c0-0.1,0-0.2,0-0.2
			c0-0.1,0-0.2,0-0.3c0-0.1,0-0.2,0-0.2c0-0.1,0-0.2,0-0.2c0-0.1,0-0.2,0-0.2c0-0.1,0-0.2-0.1-0.2c0-0.1-0.1-0.2-0.1-0.2
			c0-0.1-0.1-0.2-0.1-0.2l-0.1-0.2c0-0.1-0.1-0.2-0.1-0.2l-0.1-0.2c0-0.1-0.1-0.1-0.1-0.2c-0.1-0.1-0.1-0.1-0.2-0.2
			c-0.1-0.1-0.1-0.1-0.2-0.2l-0.2-0.2c-0.1-0.1-0.1-0.1-0.2-0.2L23.5,26l-0.2-0.2L23,25.7l-0.3-0.2l-0.3-0.1l-0.2-0.1
			c0-0.1,0-0.2,0-0.3s0-0.2,0.1-0.3l0.1-0.3l0.1-0.3c0-0.1,0.1-0.2,0.1-0.3c0-0.1,0.1-0.2,0.1-0.3c0-0.1,0.1-0.2,0.1-0.3
			s0.1-0.2,0.1-0.3c0-0.1,0.1-0.2,0.2-0.3c0.1-0.1,0.1-0.2,0.2-0.3l0.2-0.3l0.2-0.3l0.2-0.3c0.1-0.1,0.2-0.2,0.2-0.3l0.3-0.3
			c0.1-0.1,0.2-0.2,0.3-0.3c0.1-0.1,0.2-0.2,0.3-0.3l0.3-0.3l0.3-0.3l0.3-0.3l0.4-0.3l0.4-0.3c0.1-0.1,0.3-0.2,0.4-0.3l0.3-0.2
			l0.3,0.2l0.4,0.3c0.1,0.1,0.3,0.2,0.4,0.3c0.1,0.1,0.2,0.2,0.4,0.3c0.1,0.1,0.2,0.2,0.3,0.3l0.3,0.3c0.1,0.1,0.2,0.2,0.3,0.3
			c0.1,0.1,0.2,0.2,0.3,0.3c0.1,0.1,0.2,0.2,0.3,0.3l0.3,0.3c0.1,0.1,0.2,0.2,0.2,0.3l0.2,0.3l0.2,0.3l0.2,0.3
			c0.1,0.1,0.1,0.2,0.2,0.3c0.1,0.1,0.1,0.2,0.2,0.3c0.1,0.1,0.1,0.2,0.1,0.3l0.1,0.3c0,0.1,0.1,0.2,0.1,0.3l0.1,0.3
			c0,0.1,0.1,0.2,0.1,0.3c0,0.1,0.1,0.2,0.1,0.3l0.1,0.3l0,0.3l-0.2,0.1l-0.3,0.2l-0.3,0.2l-0.3,0.2L31.4,26l-0.2,0.2L31,26.4
			l-0.2,0.2c-0.1,0.1-0.1,0.1-0.2,0.2c-0.1,0.1-0.1,0.1-0.2,0.2l-0.1,0.2c-0.1,0.1-0.1,0.2-0.1,0.2L30,27.7l-0.1,0.2
			c0,0.1-0.1,0.2-0.1,0.2c0,0.1-0.1,0.2-0.1,0.2l-0.1,0.2c0,0.1,0,0.2,0,0.2c0,0.1,0,0.2,0,0.3s0,0.2,0,0.2c0,0.1,0,0.2,0,0.2
			c0,0.1,0,0.2,0,0.2c0,0.1,0,0.2,0.1,0.2c0,0.1,0.1,0.2,0.1,0.2c0,0.1,0.1,0.1,0.1,0.2c0,0.1,0.1,0.1,0.2,0.2
			c0.1,0.1,0.1,0.1,0.2,0.2c0.1,0.1,0.1,0.1,0.2,0.2c0.1,0.1,0.2,0.1,0.2,0.2l0.2,0.1l0.2,0.1l0.2,0c0.1,0,0.2,0,0.3,0h0.3l0.2,0
			l0.2-0.1l0.2-0.1l0.2-0.1l0.2-0.1l0.2-0.1l0.2-0.2c0.1,0,0.1-0.1,0.2-0.2l0.2-0.2l0.2-0.2c0.1-0.1,0.1-0.1,0.2-0.2
			c0.1-0.1,0.1-0.1,0.2-0.2l0.1-0.2l0.1-0.3l0.1-0.2c0-0.1,0.1-0.2,0.1-0.3c0-0.1,0.1-0.2,0.1-0.3c0-0.1,0.1-0.2,0.1-0.3
			c0-0.1,0.1-0.2,0.1-0.3l0.1-0.3c0-0.1,0-0.2,0.1-0.3c0-0.1,0-0.1,0-0.2l0.3,0l0.3,0h0.3c0.2,0,0.4,0,0.6,0H37c0.1,0,0.2,0,0.3,0
			l0.3,0l0.3,0.1l0.4,0.1l0.4,0.1l0.4,0.1l0.4,0.1l0.4,0.1l0.4,0.2l0.4,0.2l0.4,0.2l0.4,0.2l0.4,0.2c0.1,0.1,0.3,0.2,0.4,0.2
			c0.1,0.1,0.3,0.2,0.4,0.3c0.1,0.1,0.3,0.2,0.4,0.3c0.1,0.1,0.3,0.2,0.4,0.3l0.3,0.2c0,0.1-0.1,0.2-0.1,0.3c0,0.1-0.1,0.3-0.1,0.5
			c0,0.1-0.1,0.3-0.1,0.5c0,0.1-0.1,0.3-0.1,0.4c-0.1,0.1-0.1,0.3-0.2,0.4c0,0.1-0.1,0.3-0.2,0.4c-0.1,0.1-0.1,0.3-0.2,0.4
			s-0.1,0.3-0.2,0.4L42,33.7c-0.1,0.1-0.1,0.2-0.2,0.4c-0.1,0.1-0.1,0.2-0.2,0.3l-0.2,0.3c-0.1,0.1-0.2,0.2-0.2,0.3l-0.2,0.3
			c-0.1,0.1-0.2,0.2-0.2,0.3l-0.2,0.2L40.2,36l-0.3,0.2l-0.2,0.2l-0.3,0.2l-0.3,0.2L38.9,37l-0.2,0.1l-0.2,0.1l-0.1-0.2l-0.2-0.2
			l-0.2-0.2l-0.2-0.2l-0.2-0.2c-0.1-0.1-0.2-0.1-0.2-0.2S37,36,36.9,36l-0.2-0.1l-0.3-0.1l-0.3-0.1l-0.2-0.1l-0.2-0.1l-0.3-0.1
			l-0.2,0h-0.2h-0.2h-0.2c-0.1,0-0.2,0-0.2,0l-0.3,0.1l-0.2,0.1c-0.1,0-0.1,0.1-0.2,0.1c-0.1,0-0.1,0.1-0.2,0.1
			c-0.1,0.1-0.1,0.1-0.2,0.1C33,36,32.9,36,32.9,36.1c-0.1,0.1-0.1,0.1-0.2,0.2c-0.1,0.1-0.2,0.3-0.3,0.4c0,0.1-0.1,0.2-0.1,0.3
			c0,0.1-0.1,0.2-0.1,0.3l0,0.3c0,0.1,0,0.2,0,0.3c0,0.1,0,0.2,0,0.3c0,0,0,0.1,0.1,0.2c0,0.1,0,0.2,0.1,0.2c0,0.1,0.1,0.2,0.1,0.2
			c0,0.1,0.1,0.2,0.1,0.2c0,0.1,0.1,0.1,0.1,0.2l0.2,0.2c0,0.1,0.1,0.1,0.2,0.2c0.1,0.1,0.1,0.1,0.2,0.2l0.2,0.1l0.2,0.1
			c0.1,0,0.1,0.1,0.2,0.1c0.1,0,0.1,0.1,0.3,0.1l0.2,0.1l0.2,0.1l0.3,0.1l0.3,0.1l0.3,0l0.3,0H36c0.1,0,0.2,0,0.3,0
			c0.1,0,0.2,0,0.3,0l0.3,0l0.3,0l0.2,0c0,0.1,0.1,0.2,0.1,0.2c0,0.1,0.1,0.2,0.1,0.3l0.1,0.3c0,0.1,0.1,0.2,0.1,0.3
			c0,0.1,0.1,0.2,0.1,0.3c0,0.1,0.1,0.2,0.1,0.3l0.1,0.3c0,0.1,0,0.2,0.1,0.4c0,0.1,0,0.2,0.1,0.3l0.1,0.7c0,0.1,0,0.3,0,0.4v0.4
			c0,0.1,0,0.3,0,0.4c0,0.1,0,0.3,0,0.4c0,0.1,0,0.3,0,0.4s0,0.3-0.1,0.4c0,0.1-0.1,0.3-0.1,0.4c0,0.1-0.1,0.3-0.1,0.4
			s-0.1,0.3-0.1,0.4c0,0.1-0.1,0.3-0.1,0.4c0,0.1-0.1,0.3-0.1,0.4c-0.1,0.1-0.1,0.3-0.2,0.4c-0.1,0.1-0.1,0.2-0.1,0.3l-0.3,0h-0.5
			h-0.5h-0.5h-0.4l-0.4,0l-0.4-0.1l-0.4-0.1L33.5,49l-0.4-0.1l-0.4-0.1l-0.4-0.1L32,48.5l-0.3-0.1l-0.3-0.2L31,48.1l-0.3-0.2
			l-0.3-0.2c-0.1-0.1-0.2-0.1-0.3-0.2c-0.1-0.1-0.2-0.1-0.3-0.2l-0.2-0.2L29,46.6l0.1-0.2c0.1-0.1,0.1-0.2,0.1-0.3
			c0-0.1,0.1-0.2,0.1-0.3c0-0.1,0.1-0.2,0.1-0.3c0-0.1,0.1-0.2,0.1-0.3c0-0.1,0.1-0.2,0.1-0.3c0-0.1,0-0.2,0.1-0.3
			c0-0.1,0-0.2,0-0.3c0-0.1,0-0.2,0-0.3v-0.3v-0.3c0-0.1,0-0.2,0-0.3s0-0.2,0-0.2c0-0.1,0-0.2,0-0.3l0-0.2c0-0.1-0.1-0.2-0.1-0.2
			c0-0.1-0.1-0.1-0.1-0.2c0-0.1-0.1-0.2-0.1-0.2l-0.1-0.2c0-0.1-0.1-0.1-0.1-0.2l-0.1-0.2c-0.1-0.1-0.1-0.1-0.2-0.2
			c-0.1-0.1-0.1-0.1-0.2-0.1c-0.1-0.1-0.1-0.1-0.2-0.1c-0.1,0-0.2-0.1-0.2-0.1c-0.1,0-0.1-0.1-0.2-0.1c-0.1,0-0.2,0-0.3-0.1
			c-0.2,0-0.3,0-0.5,0c-0.1,0-0.2,0-0.2,0.1c-0.1,0-0.2,0-0.2,0.1c-0.1,0-0.2,0.1-0.2,0.1c-0.1,0-0.1,0.1-0.2,0.1
			c-0.1,0-0.1,0.1-0.2,0.2c-0.1,0.1-0.1,0.1-0.2,0.2c-0.1,0.1-0.1,0.1-0.2,0.2c0,0.1-0.1,0.1-0.1,0.2c0,0.1-0.1,0.1-0.1,0.2
			l-0.1,0.2c0,0.1-0.1,0.2-0.1,0.2c0,0.1-0.1,0.2-0.1,0.2c0,0.1,0,0.2-0.1,0.2c0,0.1,0,0.2,0,0.2c0,0.1,0,0.2,0,0.3
			c0,0.1,0,0.2,0,0.3v0.3l0.1,0.8c0,0.1,0,0.2,0.1,0.3c0,0.1,0,0.2,0.1,0.3l0.2,0.5l0.1,0.3c0,0.1,0.1,0.2,0.1,0.3
			c0,0.1,0.1,0.1,0.1,0.2L25.5,47c-0.1,0.1-0.1,0.1-0.2,0.2l-0.2,0.2l-0.3,0.2l-0.3,0.2l-0.3,0.2l-0.3,0.2l-0.3,0.2l-0.3,0.2
			L23,48.5l-0.4,0.1l-0.4,0.1l-0.4,0.1L21.5,49l-0.4,0.1l-0.4,0.1c-0.1,0-0.3,0-0.4,0.1c-0.1,0-0.3,0-0.4,0h-0.4h-0.5h-0.5H18
			l-0.3,0l-0.1-0.3c-0.1-0.1-0.1-0.3-0.2-0.5c-0.1-0.2-0.1-0.3-0.1-0.4c0-0.2-0.1-0.3-0.1-0.4c0-0.1-0.1-0.3-0.1-0.4
			c0-0.1-0.1-0.3-0.1-0.4c0-0.1-0.1-0.3-0.1-0.4c0-0.1,0-0.3-0.1-0.4C16.7,45.7,16.7,45.5,16.6,45.4L16.6,45.4z M55,28
			c0-0.3,0-0.6,0-0.9c0-0.3,0-0.4,0-0.7v-0.2l-0.1-0.1c-0.1-0.2-0.2-0.4-0.4-0.6c-0.1-0.2-0.3-0.5-0.5-0.7c-0.2-0.2-0.3-0.5-0.5-0.7
			c-0.2-0.2-0.4-0.5-0.5-0.7s-0.4-0.4-0.5-0.7s-0.4-0.4-0.6-0.6c-0.2-0.2-0.4-0.4-0.6-0.6c-0.2-0.2-0.4-0.4-0.6-0.6
			c-0.2-0.2-0.4-0.4-0.6-0.6c-0.2-0.2-0.4-0.4-0.6-0.5l-0.6-0.5c-0.2-0.2-0.4-0.3-0.6-0.5s-0.4-0.3-0.6-0.5
			c-0.2-0.1-0.4-0.3-0.7-0.4c-0.2-0.1-0.5-0.3-0.7-0.4l-0.7-0.4l-0.7-0.4l-0.7-0.3l-0.7-0.3l-2-0.8l-1.3-1.6l-0.5-0.6
			c-0.2-0.2-0.3-0.4-0.5-0.6c-0.2-0.2-0.4-0.4-0.5-0.5c-0.1-0.1-0.4-0.4-0.6-0.5c-0.2-0.1-0.4-0.4-0.6-0.5s-0.4-0.4-0.6-0.5
			c-0.2-0.2-0.4-0.3-0.6-0.5l-0.6-0.5c-0.2-0.2-0.5-0.3-0.7-0.5c-0.2-0.1-0.5-0.3-0.7-0.4c-0.2-0.1-0.5-0.3-0.7-0.4
			c-0.2-0.1-0.5-0.3-0.7-0.4s-0.5-0.3-0.7-0.4c-0.2-0.1-0.5-0.2-0.8-0.3S31,7.2,30.7,7.1c-0.3-0.1-0.5-0.2-0.8-0.3l-0.8-0.3
			l-0.8-0.2l-0.6-0.2l-0.2,0l-0.2,0l-0.6,0.2l-0.8,0.2L25,6.8c-0.3,0.1-0.6,0.2-0.8,0.3l-0.8,0.3c-0.2,0.1-0.5,0.2-0.8,0.3L22,8.1
			l-0.7,0.4l-0.7,0.4c-0.2,0.1-0.5,0.3-0.7,0.4c-0.2,0.1-0.5,0.3-0.7,0.5l-0.6,0.5l-0.6,0.5c-0.2,0.2-0.4,0.3-0.6,0.5l-0.6,0.5
			c-0.2,0.2-0.4,0.4-0.6,0.5l-0.5,0.5c-0.2,0.2-0.4,0.4-0.5,0.6c-0.2,0.2-0.3,0.4-0.5,0.6l-1.3,1.6l-1.8,0.7l-0.7,0.3
			c-0.2,0.1-0.5,0.2-0.7,0.3l-0.7,0.4c-0.2,0.1-0.5,0.3-0.7,0.4c-0.2,0.1-0.4,0.3-0.7,0.4c-0.2,0.1-0.5,0.3-0.6,0.4l-0.7,0.5
			l-0.6,0.5c-0.2,0.2-0.4,0.3-0.6,0.5c-0.2,0.2-0.4,0.4-0.6,0.5c-0.2,0.2-0.4,0.4-0.6,0.6c-0.2,0.2-0.4,0.4-0.6,0.6
			c-0.2,0.2-0.4,0.4-0.6,0.6s-0.4,0.4-0.6,0.6C2.4,23,2.2,23.3,2,23.5c-0.2,0.2-0.4,0.5-0.5,0.7c-0.2,0.2-0.4,0.5-0.5,0.7
			c-0.2,0.2-0.3,0.5-0.5,0.7c-0.2,0.2-0.2,0.4-0.4,0.6l-0.1,0.1v0.2c0,0.2,0,0.5,0,0.7s0,0.6,0,0.9c0,0.3,0,0.6,0,0.9
			c0,0.3,0,0.6,0,0.9c0,0.3,0,0.6,0.1,0.9c0,0.3,0.1,0.6,0.1,0.8c0,0.3,0.1,0.6,0.1,0.8s0.1,0.6,0.1,0.8s0.1,0.5,0.2,0.8
			c0.1,0.3,0.1,0.6,0.2,0.8c0.1,0.2,0.1,0.5,0.2,0.8c0.1,0.3,0.2,0.5,0.2,0.8s0.2,0.5,0.3,0.8c0.1,0.2,0.2,0.5,0.3,0.7
			c0.1,0.2,0.2,0.5,0.3,0.7c0.1,0.2,0.2,0.5,0.3,0.7c0.1,0.2,0.2,0.5,0.3,0.7C2.9,40,3,40.3,3.1,40.5c0.1,0.2,0.3,0.4,0.4,0.6l1,1.8
			L4.7,45c0,0.2,0,0.5,0.1,0.8c0,0.2,0.1,0.5,0.1,0.8c0,0.2,0.1,0.5,0.1,0.8c0,0.2,0.1,0.5,0.1,0.8c0,0.2,0.1,0.5,0.2,0.8
			c0.1,0.2,0.1,0.5,0.2,0.8c0.1,0.3,0.1,0.5,0.2,0.8c0.1,0.2,0.2,0.5,0.3,0.8c0.1,0.2,0.2,0.5,0.3,0.8c0.1,0.2,0.2,0.5,0.3,0.8
			c0.1,0.2,0.2,0.5,0.3,0.8c0.1,0.2,0.2,0.5,0.4,0.7c0.1,0.2,0.3,0.5,0.4,0.8c0.1,0.2,0.3,0.5,0.4,0.7c0.1,0.2,0.3,0.5,0.4,0.7
			C8.7,56.5,8.8,56.8,9,57c0.1,0.2,0.3,0.5,0.5,0.7c0.2,0.2,0.4,0.5,0.5,0.7c0.2,0.2,0.3,0.3,0.4,0.5l0.1,0.1l0.2,0.1l0.6,0.2
			c0.3,0.1,0.6,0.2,0.8,0.3l0.8,0.3c0.3,0.1,0.6,0.2,0.8,0.2c0.3,0.1,0.6,0.1,0.8,0.2c0.3,0.1,0.6,0.1,0.8,0.2l0.8,0.2l0.8,0.1
			c0.3,0,0.5,0.1,0.8,0.1c0.3,0,0.6,0,0.8,0.1c0.3,0,0.5,0,0.8,0h0.6c0.3,0,0.6,0,0.9,0l0.8,0l0.8-0.1l0.8-0.1l0.7-0.1
			c0.2,0,0.5-0.1,0.7-0.1c0.2-0.1,0.5-0.1,0.7-0.2l1.9-0.5l2.1,0.5l0.7,0.2c0.2,0,0.5,0.1,0.7,0.1l0.8,0.1c0.2,0,0.5,0.1,0.8,0.1
			l0.8,0.1l0.8,0h0.8h0.2h0.6c0.3,0,0.6,0,0.8,0c0.2,0,0.6,0,0.8-0.1l0.8-0.1c0.3,0,0.6-0.1,0.8-0.1c0.3,0,0.6-0.1,0.8-0.1
			c0.3-0.1,0.6-0.1,0.8-0.2c0.3-0.1,0.6-0.1,0.8-0.2l0.8-0.2l0.8-0.3c0.3-0.1,0.6-0.2,0.8-0.3l0.6-0.2l0.2-0.1l0.1-0.1l0.4-0.5
			c0.2-0.2,0.4-0.5,0.5-0.7c0.1-0.2,0.3-0.5,0.5-0.7c0.2-0.2,0.3-0.5,0.5-0.7c0.1-0.2,0.3-0.5,0.4-0.7c0.1-0.2,0.3-0.5,0.4-0.7
			c0.1-0.2,0.3-0.5,0.4-0.7c0.1-0.2,0.2-0.5,0.4-0.7c0.1-0.2,0.2-0.5,0.3-0.8c0.1-0.2,0.2-0.5,0.3-0.8c0.1-0.2,0.2-0.5,0.3-0.8
			s0.2-0.5,0.2-0.8c0.1-0.2,0.2-0.5,0.2-0.8c0.1-0.2,0.1-0.5,0.2-0.8c0.1-0.2,0.1-0.5,0.2-0.8c0-0.2,0.1-0.5,0.1-0.8
			c0-0.2,0.1-0.5,0.1-0.8c0-0.2,0.1-0.5,0.1-0.8c0-0.2,0.1-0.5,0.1-0.8l0.1-2.1l1.1-1.7c0.1-0.2,0.3-0.5,0.4-0.7
			c0.1-0.2,0.2-0.5,0.4-0.7c0.1-0.2,0.2-0.5,0.3-0.7l0.3-0.7c0.1-0.2,0.2-0.5,0.3-0.7s0.2-0.5,0.3-0.7c0.1-0.2,0.2-0.5,0.3-0.8
			c0.1-0.2,0.2-0.5,0.2-0.8c0.1-0.3,0.2-0.5,0.2-0.8c0.1-0.2,0.1-0.5,0.2-0.8c0.1-0.3,0.1-0.6,0.2-0.8c0-0.3,0.1-0.6,0.1-0.8
			c0-0.3,0.1-0.6,0.1-0.8c0-0.3,0.1-0.6,0.1-0.8c0-0.3,0-0.6,0.1-0.8c0-0.3,0-0.6,0-0.9C55,28.6,55,28.3,55,28"/>
	</g>
</g>
<path class="st0" d="M85.3,57.1c-0.6,0-1.2-0.1-1.7-0.4c-0.5-0.3-0.9-0.7-1.1-1.2c-0.3-0.5-0.4-1.1-0.4-1.8c0-0.7,0.1-1.3,0.4-1.8
	c0.3-0.5,0.7-0.9,1.1-1.2c0.5-0.3,1.1-0.4,1.7-0.4c0.8,0,1.4,0.2,1.9,0.6c0.5,0.4,0.8,0.9,1,1.5l-1.1,0.2c-0.1-0.4-0.3-0.7-0.6-1
	c-0.3-0.3-0.7-0.4-1.2-0.4c-0.6,0-1.2,0.2-1.5,0.7c-0.4,0.4-0.6,1-0.6,1.7c0,0.7,0.2,1.3,0.6,1.7c0.4,0.4,0.9,0.6,1.5,0.6
	c0.5,0,0.9-0.1,1.2-0.4c0.3-0.2,0.5-0.6,0.6-1l1.1,0.2c-0.1,0.7-0.5,1.2-1,1.6C86.7,56.9,86.1,57.1,85.3,57.1z M93.3,51.5
	c-0.2-0.1-0.5-0.2-0.8-0.2c-0.6,0-1,0.3-1.4,0.8c-0.3,0.5-0.5,1.3-0.5,2.3V57h-1.1v-6.6h1.1v1.3c0.2-0.4,0.5-0.8,0.9-1
	c0.4-0.3,0.8-0.4,1.2-0.4c0.3,0,0.5,0,0.8,0.1L93.3,51.5z M99.8,50.5l-3.4,8.9h-1.1l0.9-2.5l-2.6-6.5h1.2l1.9,5l1.9-5H99.8z
	 M100.7,50.5h1.1v0.9c0.2-0.3,0.5-0.6,0.9-0.8c0.4-0.2,0.8-0.3,1.3-0.3c0.7,0,1.2,0.1,1.7,0.4c0.5,0.3,0.8,0.7,1.1,1.2
	c0.3,0.5,0.4,1.1,0.4,1.7c0,0.6-0.1,1.2-0.4,1.7c-0.3,0.5-0.6,0.9-1.1,1.2c-0.5,0.3-1,0.4-1.7,0.4c-0.4,0-0.8-0.1-1.2-0.3
	c-0.4-0.2-0.7-0.4-0.9-0.7v3.3h-1.1V50.5z M101.7,53.7c0,0.7,0.2,1.3,0.6,1.7c0.4,0.4,0.9,0.6,1.5,0.6c0.7,0,1.2-0.2,1.6-0.6
	c0.4-0.4,0.6-1,0.6-1.7c0-0.7-0.2-1.3-0.6-1.7c-0.4-0.4-0.9-0.7-1.6-0.7c-0.6,0-1.2,0.2-1.5,0.7C101.9,52.4,101.7,53,101.7,53.7z
	 M111.8,57c-0.3,0.1-0.6,0.2-1,0.2c-0.6,0-1.1-0.2-1.4-0.5c-0.3-0.3-0.5-0.9-0.5-1.6v-3.6h-1.2v-1h1.2v-2h1.1v2h1.8v1h-1.8v3.7
	c0,0.3,0.1,0.6,0.3,0.8c0.2,0.2,0.4,0.3,0.7,0.3c0.3,0,0.6-0.1,0.8-0.2L111.8,57z M115.7,57.1c-0.6,0-1.2-0.1-1.7-0.4
	c-0.5-0.3-0.9-0.7-1.2-1.2c-0.3-0.5-0.4-1.1-0.4-1.7c0-0.7,0.1-1.2,0.4-1.7c0.3-0.5,0.7-0.9,1.2-1.2c0.5-0.3,1.1-0.4,1.7-0.4
	c0.6,0,1.2,0.1,1.7,0.4c0.5,0.3,0.9,0.7,1.2,1.2c0.3,0.5,0.4,1.1,0.4,1.7c0,0.6-0.1,1.2-0.4,1.7c-0.3,0.5-0.7,0.9-1.2,1.2
	C116.9,57,116.4,57.1,115.7,57.1z M113.5,53.7c0,0.7,0.2,1.3,0.6,1.7c0.4,0.4,0.9,0.7,1.6,0.7s1.2-0.2,1.6-0.7
	c0.4-0.5,0.6-1,0.6-1.7s-0.2-1.3-0.6-1.7c-0.4-0.5-0.9-0.7-1.6-0.7s-1.2,0.2-1.6,0.7C113.7,52.5,113.5,53,113.5,53.7z M123.4,57
	v-9.2h1.1v5.3l3-2.7h1.5l-2.8,2.6l3,4h-1.4l-2.5-3.2l-0.9,0.8V57H123.4z M130.1,50.5h1.1v1.2c0.2-0.4,0.5-0.7,0.9-1
	c0.4-0.2,0.8-0.4,1.3-0.4c0.7,0,1.2,0.2,1.7,0.6c0.4,0.4,0.7,1,0.7,1.7V57h-1.1v-4.1c0-0.5-0.1-0.8-0.4-1.1
	c-0.3-0.3-0.6-0.4-1.1-0.4c-0.6,0-1.1,0.3-1.5,0.8c-0.4,0.5-0.5,1.2-0.5,2V57h-1.1V50.5z M140.4,57.1c-0.6,0-1.2-0.1-1.7-0.4
	c-0.5-0.3-0.9-0.7-1.2-1.2c-0.3-0.5-0.4-1.1-0.4-1.7c0-0.7,0.1-1.2,0.4-1.7c0.3-0.5,0.7-0.9,1.2-1.2c0.5-0.3,1.1-0.4,1.7-0.4
	c0.6,0,1.2,0.1,1.7,0.4c0.5,0.3,0.9,0.7,1.2,1.2c0.3,0.5,0.4,1.1,0.4,1.7c0,0.6-0.1,1.2-0.4,1.7c-0.3,0.5-0.7,0.9-1.2,1.2
	C141.7,57,141.1,57.1,140.4,57.1z M138.2,53.7c0,0.7,0.2,1.3,0.6,1.7c0.4,0.4,0.9,0.7,1.6,0.7c0.7,0,1.2-0.2,1.6-0.7
	c0.4-0.5,0.6-1,0.6-1.7s-0.2-1.3-0.6-1.7c-0.4-0.5-0.9-0.7-1.6-0.7c-0.6,0-1.2,0.2-1.6,0.7C138.4,52.5,138.2,53,138.2,53.7z
	 M144.4,50.5h1.1l1.4,5l1.5-5h1.1l1.5,5l1.4-5h1.2l-2,6.6h-1.1l-1.5-5l-1.5,5h-1.1L144.4,50.5z M154.7,47.8h1.1V57h-1.1V47.8z
	 M157.1,53.7c0-0.6,0.1-1.2,0.4-1.7c0.3-0.5,0.6-0.9,1.1-1.2c0.5-0.3,1-0.5,1.7-0.5c0.6,0,1.2,0.1,1.7,0.4c0.5,0.3,0.8,0.6,1.1,1.1
	c0.3,0.5,0.4,1,0.4,1.5c0,0.2,0,0.4,0,0.5h-5.2c0,0.7,0.2,1.2,0.6,1.6c0.4,0.4,0.9,0.6,1.5,0.6c0.5,0,0.9-0.1,1.2-0.3
	c0.3-0.2,0.5-0.5,0.6-0.9l1,0.2c-0.2,0.6-0.5,1.1-1,1.5c-0.5,0.4-1.1,0.5-1.9,0.5c-0.6,0-1.2-0.1-1.7-0.4c-0.5-0.3-0.8-0.7-1.1-1.2
	C157.2,54.9,157.1,54.4,157.1,53.7z M162.2,53c-0.1-0.5-0.3-0.9-0.6-1.3c-0.3-0.3-0.8-0.5-1.4-0.5c-0.5,0-0.9,0.2-1.3,0.5
	c-0.4,0.3-0.6,0.7-0.7,1.3H162.2z M167.5,57.1c-0.7,0-1.2-0.1-1.7-0.4c-0.5-0.3-0.8-0.7-1.1-1.2c-0.2-0.5-0.4-1.1-0.4-1.7
	c0-0.7,0.1-1.2,0.4-1.7c0.3-0.5,0.6-0.9,1.1-1.2c0.5-0.3,1-0.4,1.7-0.4c0.4,0,0.8,0.1,1.2,0.3c0.4,0.2,0.7,0.4,0.9,0.8v-3.6h1.1V57
	h-1.1v-0.9c-0.1,0.3-0.4,0.6-0.8,0.8C168.4,57,167.9,57.1,167.5,57.1z M165.4,53.7c0,0.7,0.2,1.3,0.6,1.7c0.4,0.4,0.9,0.6,1.5,0.6
	c0.6,0,1.2-0.2,1.5-0.6c0.4-0.4,0.6-1,0.6-1.7c0-0.7-0.2-1.3-0.6-1.7c-0.4-0.4-0.9-0.7-1.5-0.7c-0.6,0-1.2,0.2-1.5,0.7
	C165.6,52.4,165.4,53,165.4,53.7z M175.1,56.8c-0.7,0-1.2-0.1-1.7-0.4c-0.5-0.3-0.8-0.7-1.1-1.1c-0.2-0.5-0.4-1.1-0.4-1.7
	s0.1-1.2,0.4-1.7c0.2-0.5,0.6-0.9,1.1-1.2c0.5-0.3,1-0.4,1.7-0.4c0.4,0,0.8,0.1,1.2,0.3c0.4,0.2,0.7,0.4,0.9,0.7v-0.9h1.1v6.2
	c0,0.5-0.1,1-0.4,1.4c-0.3,0.4-0.6,0.8-1.1,1c-0.5,0.2-1,0.4-1.6,0.4c-0.8,0-1.4-0.2-1.9-0.6c-0.5-0.4-0.9-0.8-0.9-1.4l1.1-0.2
	c0,0.4,0.2,0.7,0.6,0.9c0.3,0.2,0.8,0.4,1.3,0.4c0.6,0,1.1-0.2,1.4-0.5c0.4-0.3,0.5-0.7,0.5-1.2v-0.9c-0.1,0.3-0.4,0.5-0.8,0.7
	C176,56.8,175.6,56.8,175.1,56.8z M173.1,53.6c0,0.7,0.2,1.2,0.6,1.6c0.4,0.4,0.9,0.6,1.5,0.6c0.6,0,1.1-0.2,1.5-0.6
	c0.4-0.4,0.6-1,0.6-1.6c0-0.7-0.2-1.2-0.6-1.6c-0.4-0.4-0.9-0.6-1.5-0.6c-0.6,0-1.2,0.2-1.5,0.6C173.3,52.4,173.1,52.9,173.1,53.6z
	 M179.6,53.7c0-0.6,0.1-1.2,0.4-1.7c0.3-0.5,0.6-0.9,1.1-1.2c0.5-0.3,1-0.5,1.7-0.5c0.6,0,1.2,0.1,1.7,0.4c0.5,0.3,0.8,0.6,1.1,1.1
	c0.3,0.5,0.4,1,0.4,1.5c0,0.2,0,0.4,0,0.5h-5.2c0,0.7,0.2,1.2,0.6,1.6c0.4,0.4,0.9,0.6,1.5,0.6c0.5,0,0.9-0.1,1.2-0.3
	c0.3-0.2,0.5-0.5,0.6-0.9l1,0.2c-0.2,0.6-0.5,1.1-1,1.5c-0.5,0.4-1.1,0.5-1.9,0.5c-0.6,0-1.2-0.1-1.7-0.4c-0.5-0.3-0.8-0.7-1.1-1.2
	C179.7,54.9,179.6,54.4,179.6,53.7z M184.7,53c-0.1-0.5-0.3-0.9-0.6-1.3c-0.3-0.3-0.8-0.5-1.4-0.5c-0.5,0-0.9,0.2-1.3,0.5
	c-0.4,0.3-0.6,0.7-0.7,1.3H184.7z M190.4,57.1c-0.5,0-0.9-0.1-1.3-0.3c-0.4-0.2-0.7-0.5-0.8-0.8V57h-1.1v-9.2h1.1v3.6
	c0.2-0.3,0.5-0.6,0.9-0.8c0.4-0.2,0.8-0.3,1.2-0.3c0.7,0,1.2,0.1,1.7,0.4c0.5,0.3,0.8,0.7,1.1,1.2c0.3,0.5,0.4,1.1,0.4,1.7
	c0,0.6-0.1,1.2-0.4,1.7c-0.2,0.5-0.6,0.9-1.1,1.2C191.6,57,191.1,57.1,190.4,57.1z M188.2,53.7c0,0.7,0.2,1.3,0.6,1.7
	c0.4,0.4,0.9,0.6,1.5,0.6c0.6,0,1.2-0.2,1.5-0.6c0.4-0.4,0.6-1,0.6-1.7c0-0.7-0.2-1.3-0.6-1.7c-0.4-0.4-0.9-0.7-1.5-0.7
	c-0.6,0-1.2,0.2-1.5,0.7C188.4,52.4,188.2,53,188.2,53.7z M198.8,52.7c0-0.5-0.1-0.8-0.4-1.1c-0.3-0.3-0.7-0.4-1.2-0.4
	c-0.5,0-0.8,0.1-1.1,0.4c-0.3,0.3-0.5,0.6-0.5,1l-1-0.2c0.1-0.7,0.4-1.2,0.9-1.6c0.5-0.4,1.1-0.6,1.8-0.6c0.8,0,1.5,0.2,1.9,0.7
	c0.5,0.4,0.7,1,0.7,1.8V57h-1.1v-1.1c-0.2,0.4-0.5,0.7-0.9,0.9c-0.4,0.2-0.8,0.3-1.3,0.3c-0.6,0-1.2-0.2-1.6-0.5
	c-0.4-0.4-0.6-0.8-0.6-1.4c0-0.6,0.3-1.1,0.8-1.5c0.5-0.4,1.3-0.6,2.4-0.7l1.3-0.1V52.7z M195.5,55.2c0,0.3,0.1,0.6,0.4,0.8
	c0.2,0.2,0.6,0.3,0.9,0.3c0.6,0,1.1-0.2,1.5-0.6s0.5-0.9,0.5-1.6v-0.3l-1.3,0.1c-0.7,0.1-1.2,0.2-1.5,0.4
	C195.7,54.5,195.5,54.8,195.5,55.2z M203.8,57.1c-0.7,0-1.3-0.2-1.8-0.6c-0.5-0.4-0.8-0.8-0.9-1.4l0.9-0.4c0.3,0.9,0.9,1.4,1.8,1.4
	c0.4,0,0.7-0.1,0.9-0.3c0.3-0.2,0.4-0.4,0.4-0.7c0-0.2-0.1-0.4-0.2-0.6c-0.1-0.1-0.3-0.3-0.5-0.3c-0.2-0.1-0.5-0.2-0.9-0.3
	c-0.5-0.1-0.8-0.2-1.1-0.4c-0.3-0.1-0.5-0.3-0.7-0.5c-0.2-0.3-0.3-0.6-0.3-1c0-0.5,0.2-0.9,0.6-1.3c0.4-0.3,1-0.5,1.7-0.5
	c0.6,0,1.1,0.2,1.5,0.5c0.5,0.3,0.7,0.7,0.9,1.2l-0.9,0.4c-0.1-0.3-0.3-0.6-0.6-0.8c-0.3-0.2-0.6-0.3-1-0.3c-0.4,0-0.7,0.1-0.9,0.2
	c-0.2,0.1-0.3,0.3-0.3,0.6c0,0.3,0.1,0.5,0.4,0.6c0.2,0.1,0.6,0.2,1.1,0.4c0.5,0.1,0.9,0.2,1.2,0.4c0.3,0.1,0.6,0.3,0.8,0.6
	c0.2,0.3,0.3,0.7,0.3,1.1c0,0.6-0.2,1.1-0.7,1.4C205.1,56.9,204.5,57.1,203.8,57.1z M207,53.7c0-0.6,0.1-1.2,0.4-1.7
	c0.3-0.5,0.6-0.9,1.1-1.2c0.5-0.3,1-0.5,1.7-0.5c0.6,0,1.2,0.1,1.7,0.4c0.5,0.3,0.8,0.6,1.1,1.1c0.3,0.5,0.4,1,0.4,1.5
	c0,0.2,0,0.4,0,0.5h-5.2c0,0.7,0.2,1.2,0.6,1.6c0.4,0.4,0.9,0.6,1.5,0.6c0.5,0,0.9-0.1,1.2-0.3c0.3-0.2,0.5-0.5,0.6-0.9l1,0.2
	c-0.2,0.6-0.5,1.1-1,1.5c-0.5,0.4-1.1,0.5-1.9,0.5c-0.6,0-1.2-0.1-1.7-0.4c-0.5-0.3-0.9-0.7-1.1-1.2C207.2,54.9,207,54.4,207,53.7z
	 M212.2,53c-0.1-0.5-0.3-0.9-0.6-1.3c-0.3-0.3-0.8-0.5-1.4-0.5c-0.5,0-0.9,0.2-1.3,0.5c-0.4,0.3-0.6,0.7-0.7,1.3H212.2z"/>
</svg>
